<?xml version="1.0" standalone="no"?>
<!DOCTYPE svg PUBLIC "-//W3C//DTD SVG 20010904//EN"
 "http://www.w3.org/TR/2001/REC-SVG-20010904/DTD/svg10.dtd">
<svg version="1.0" xmlns="http://www.w3.org/2000/svg"
 width="1024.000000pt" height="1024.000000pt" viewBox="0 0 1024.000000 1024.000000"
 preserveAspectRatio="xMidYMid meet">

<g transform="translate(0.000000,1024.000000) scale(0.100000,-0.100000)"
fill="#000000" stroke="none">
<path d="M4827 8800 c-1054 -95 -1984 -668 -2590 -1595 -254 -390 -437 -880
-507 -1362 -120 -828 67 -1657 530 -2356 230 -347 494 -628 825 -880 276 -210
655 -404 1010 -519 788 -254 1638 -207 2411 132 262 115 547 287 775 469 142
115 435 411 543 551 405 524 639 1092 717 1735 19 159 17 603 -5 770 -100 786
-427 1468 -970 2024 -287 293 -560 496 -895 665 -389 196 -732 302 -1141 352
-149 18 -565 26 -703 14z m658 -286 c697 -85 1328 -387 1829 -874 954 -929
1238 -2340 709 -3535 -280 -634 -748 -1147 -1373 -1503 -496 -283 -1125 -430
-1679 -393 -368 24 -677 92 -982 214 -726 292 -1315 822 -1678 1510 -298 565
-407 1241 -306 1902 21 137 86 398 135 537 391 1134 1380 1965 2540 2134 247
36 554 39 805 8z"/>
<path d="M3459 7243 c-316 -3 -337 -4 -353 -22 -16 -18 -18 -49 -17 -332 1
-268 3 -315 16 -329 14 -13 179 -15 1559 -11 1197 2 1552 0 1581 -9 50 -16 65
-55 65 -165 0 -97 -14 -141 -55 -173 l-28 -22 -1292 0 c-1253 0 -1295 -1
-1356 -19 -78 -25 -156 -78 -196 -134 -63 -88 -60 -28 -68 -1224 -7 -1005 -6
-1095 9 -1118 l16 -25 375 0 c364 0 374 1 388 20 12 17 13 143 9 839 l-5 819
22 44 c32 68 76 88 190 88 107 0 148 -14 184 -61 25 -34 133 -255 457 -939
328 -693 333 -702 386 -748 25 -23 63 -46 83 -52 22 -6 297 -10 736 -10 767 0
747 -1 875 61 85 42 206 161 248 244 65 130 64 125 69 635 5 536 6 531 -67
568 l-45 23 -681 -3 c-727 -3 -714 -2 -714 -51 0 -12 49 -121 110 -243 86
-174 117 -227 142 -246 32 -22 41 -23 276 -28 241 -5 244 -5 263 -29 37 -46
20 -128 -33 -161 -31 -19 -51 -20 -371 -20 -371 0 -381 1 -430 59 -46 55 -477
938 -477 977 l0 24 636 0 c709 0 713 0 854 69 93 45 210 157 257 246 65 125
67 141 65 540 -2 407 -8 458 -79 584 -50 92 -178 217 -268 263 -150 78 -23 72
-1595 73 -773 0 -1556 -1 -1741 -2z"/>
</g>
</svg>
